# xmcd
#
# Track frame offsets:
#        150
#        9680
#        31062
#        58357
#        78620
#        114650
#        138795
#        143657
#        172897
#        201600
#        223252
#        230460
#        271662
#
# Disc length: 4026 seconds
#
# Revision: 0
# Processed by: cddbd v1.5.1PL2 Copyright (c) Steve Scherf et al.
# Submitted via: ExactAudioCopy v0.95b3
#
DISCID=bb0fb80d
DTITLE=THY MAJESTIE - Jeanne D'Arc
DYEAR=2005
DGENRE=Rock
TTITLE0=REVELATIONS
TTITLE1=MAIDEN OF STEEL
TTITLE2=THE CHOSEN
TTITLE3=RIDE TO CHINON
TTITLE4=FOR ORLEANS
TTITLE5=UP TO THE BATTLE
TTITLE6=MARCH OF THE BRAVE
TTITLE7=THE RISE OF A KING
TTITLE8=SEIGE OF PARIS
TTITLE9=TIME TO DIE
TTITLE10=INQUISITION
TTITLE11=THE TRIAL
TTITLE12=UNDER SIEGE(2005 VERSION)
EXTD=
EXTT0=
EXTT1=
EXTT2=
EXTT3=
EXTT4=
EXTT5=
EXTT6=
EXTT7=
EXTT8=
EXTT9=
EXTT10=
EXTT11=
EXTT12=
PLAYORDER=
